<svg width="19" height="25" viewBox="0 0 19 25" fill="none" xmlns="http://www.w3.org/2000/svg">
<path d="M18.05 12H1.86773L7.79003 4.21501C7.82571 4.16806 7.85401 4.11233 7.87332 4.05099C7.89263 3.98965 7.90257 3.9239 7.90257 3.85751C7.90257 3.79112 7.89263 3.72537 7.87332 3.66403C7.85401 3.60269 7.82571 3.54696 7.79003 3.50001C7.75435 3.45306 7.71199 3.41582 7.66537 3.39041C7.61875 3.36501 7.56879 3.35193 7.51833 3.35193C7.46787 3.35193 7.4179 3.36501 7.37129 3.39041C7.32467 3.41582 7.28231 3.45306 7.24663 3.50001L0.682129 12.145C0.664154 12.1684 0.648222 12.1944 0.634629 12.2225C0.628237 12.2344 0.622522 12.247 0.617529 12.26L0.598529 12.31L0.587129 12.36C0.586036 12.3741 0.586036 12.3884 0.587129 12.4025C0.577402 12.4669 0.577402 12.5331 0.587129 12.5975C0.586036 12.6116 0.586036 12.6259 0.587129 12.64L0.598529 12.69L0.617529 12.74C0.622522 12.753 0.628237 12.7656 0.634629 12.7775C0.648222 12.8056 0.664154 12.8316 0.682129 12.855L7.24663 21.5C7.28202 21.5476 7.32428 21.5855 7.37094 21.6113C7.4176 21.6371 7.46771 21.6504 7.51833 21.6504C7.56895 21.6504 7.61906 21.6371 7.66572 21.6113C7.71238 21.5855 7.75464 21.5476 7.79003 21.5C7.82536 21.4536 7.85339 21.3984 7.87251 21.3377C7.89164 21.277 7.90148 21.212 7.90148 21.1463C7.90148 21.0805 7.89164 21.0155 7.87251 20.9548C7.85339 20.8941 7.82536 20.8389 7.79003 20.7925L1.86773 13H18.05C18.1508 13 18.2475 12.9473 18.3187 12.8536C18.39 12.7598 18.43 12.6326 18.43 12.5C18.43 12.3674 18.39 12.2402 18.3187 12.1465C18.2475 12.0527 18.1508 12 18.05 12Z" fill="black"/>
</svg>
