<svg width="19" height="25" viewBox="0 0 19 25" fill="none" xmlns="http://www.w3.org/2000/svg">
<path d="M0.949972 13L17.1323 13L11.21 20.785C11.1743 20.8319 11.146 20.8877 11.1267 20.949C11.1074 21.0104 11.0974 21.0761 11.0974 21.1425C11.0974 21.2089 11.1074 21.2746 11.1267 21.336C11.146 21.3973 11.1743 21.453 11.21 21.5C11.2457 21.5469 11.288 21.5842 11.3346 21.6096C11.3812 21.635 11.4312 21.6481 11.4817 21.6481C11.5321 21.6481 11.5821 21.635 11.6287 21.6096C11.6753 21.5842 11.7177 21.5469 11.7534 21.5L18.3179 12.855C18.3358 12.8316 18.3518 12.8056 18.3654 12.7775C18.3718 12.7656 18.3775 12.753 18.3825 12.74L18.4015 12.69L18.4129 12.64C18.414 12.6259 18.414 12.6116 18.4129 12.5975C18.4226 12.5331 18.4226 12.4669 18.4129 12.4025C18.414 12.3884 18.414 12.3741 18.4129 12.36L18.4015 12.31L18.3825 12.26C18.3775 12.247 18.3718 12.2344 18.3654 12.2225C18.3518 12.1944 18.3358 12.1684 18.3179 12.145L11.7534 3.49999C11.718 3.45237 11.6757 3.41453 11.6291 3.38869C11.5824 3.36286 11.5323 3.34955 11.4817 3.34955C11.4311 3.34955 11.3809 3.36286 11.3343 3.38869C11.2876 3.41453 11.2454 3.45237 11.21 3.49999C11.1746 3.54643 11.1466 3.60157 11.1275 3.66227C11.1084 3.72297 11.0985 3.78803 11.0985 3.85374C11.0985 3.91945 11.1084 3.98451 11.1275 4.04521C11.1466 4.10591 11.1746 4.16105 11.21 4.20749L17.1323 12L0.949972 12C0.84919 12 0.752534 12.0527 0.681271 12.1464C0.610007 12.2402 0.569971 12.3674 0.569971 12.5C0.569971 12.6326 0.610007 12.7598 0.681271 12.8535C0.752534 12.9473 0.84919 13 0.949972 13Z" fill="black"/>
</svg>
