<svg width="18" height="18" viewBox="0 0 18 18" fill="none" xmlns="http://www.w3.org/2000/svg">
<path d="M17.46 9.00008C17.46 7.60333 17.1142 6.22831 16.4534 4.99775C15.7926 3.76719 14.8374 2.71937 13.6731 1.94784C12.5088 1.17631 11.1715 0.705053 9.78075 0.576147C8.38996 0.447241 6.9889 0.664692 5.70261 1.20909C4.41632 1.75349 3.28483 2.6079 2.40913 3.69605C1.53344 4.7842 0.940793 6.07224 0.684087 7.4452C0.427381 8.81816 0.514606 10.2333 0.937975 11.5644C1.36134 12.8954 2.10768 14.1009 3.11038 15.0733C4.67842 16.5956 6.77541 17.451 8.96084 17.4597C11.1463 17.4684 13.25 16.6298 14.8302 15.1201C14.8648 15.0973 14.8953 15.0687 14.9202 15.0355C15.7243 14.2494 16.3632 13.3106 16.7994 12.2742C17.2355 11.2377 17.4601 10.1246 17.46 9.00008ZM8.99998 1.26008C10.4968 1.26121 11.9612 1.69632 13.2157 2.51272C14.4703 3.32912 15.4612 4.49177 16.0685 5.85986C16.6758 7.22794 16.8733 8.74276 16.6373 10.2208C16.4012 11.6989 15.7416 13.0768 14.7384 14.1877C14.3401 13.3985 13.7826 12.7004 13.101 12.1375C12.4194 11.5746 11.6286 11.1591 10.7784 10.9171C11.4834 10.5227 12.0377 9.90564 12.3545 9.16249C12.6712 8.41935 12.7325 7.59213 12.5287 6.81042C12.325 6.02871 11.8677 5.33667 11.2284 4.84271C10.5892 4.34876 9.80421 4.08079 8.99638 4.08079C8.18855 4.08079 7.40353 4.34876 6.76432 4.84271C6.1251 5.33667 5.66778 6.02871 5.46402 6.81042C5.26025 7.59213 5.32154 8.41935 5.63829 9.16249C5.95503 9.90564 6.50934 10.5227 7.21438 10.9171C6.36391 11.1591 5.57287 11.5748 4.89126 12.1381C4.20965 12.7013 3.65228 13.3998 3.25438 14.1895C1.96369 12.7702 1.25205 10.9185 1.25998 9.00008C1.25998 6.9473 2.07544 4.9786 3.52697 3.52707C4.97851 2.07554 6.94721 1.26008 8.99998 1.26008ZM8.99998 10.6651C8.42017 10.6651 7.8534 10.4931 7.37138 10.1708C6.88936 9.84861 6.51377 9.39062 6.29213 8.85485C6.0705 8.31907 6.01278 7.72959 6.12629 7.161C6.2398 6.59241 6.51943 6.07027 6.92979 5.66066C7.34016 5.25106 7.86281 4.97239 8.43161 4.85993C9.0004 4.74747 9.58978 4.80627 10.1251 5.0289C10.6605 5.25152 11.1178 5.62796 11.4391 6.11057C11.7605 6.59318 11.9314 7.16027 11.9304 7.74008C11.9285 8.51619 11.619 9.25988 11.0697 9.80817C10.5204 10.3565 9.77609 10.6646 8.99998 10.6651ZM3.80158 14.7313C4.25563 13.7336 4.98722 12.8876 5.90899 12.2943C6.83077 11.7011 7.9038 11.3856 8.99998 11.3856C10.0962 11.3856 11.1692 11.7011 12.091 12.2943C13.0127 12.8876 13.7443 13.7336 14.1984 14.7313C12.7759 16.0246 10.9225 16.7412 8.99998 16.7412C7.07749 16.7412 5.22402 16.0246 3.80158 14.7313Z" fill="black"/>
</svg>
