<svg width="18" height="18" viewBox="0 0 18 18" fill="none" xmlns="http://www.w3.org/2000/svg">
<path d="M8.55896 13.3093C8.27415 13.3093 7.99575 13.3938 7.75894 13.552C7.52213 13.7102 7.33756 13.9351 7.22857 14.1983C7.11958 14.4614 7.09106 14.7509 7.14663 15.0303C7.20219 15.3096 7.33934 15.5662 7.54073 15.7676C7.74211 15.969 7.9987 16.1061 8.27803 16.1617C8.55736 16.2172 8.8469 16.1887 9.11003 16.0797C9.37315 15.9707 9.59805 15.7862 9.75628 15.5493C9.91451 15.3125 9.99896 15.0341 9.99896 14.7493C9.99896 14.3674 9.84725 14.0011 9.5772 13.7311C9.30714 13.461 8.94087 13.3093 8.55896 13.3093ZM8.55896 15.4693C8.41656 15.4693 8.27735 15.4271 8.15895 15.348C8.04055 15.2689 7.94826 15.1564 7.89377 15.0249C7.83927 14.8933 7.82501 14.7485 7.85279 14.6089C7.88058 14.4692 7.94915 14.3409 8.04984 14.2402C8.15054 14.1395 8.27883 14.0709 8.41849 14.0432C8.55816 14.0154 8.70293 14.0296 8.83449 14.0841C8.96606 14.1386 9.0785 14.2309 9.15762 14.3493C9.23673 14.4677 9.27896 14.6069 9.27896 14.7493C9.27754 14.9393 9.20105 15.1211 9.06618 15.255C8.93131 15.3888 8.74898 15.4639 8.55896 15.4639V15.4693Z" fill="black"/>
<path d="M13.8276 13.3093C13.5428 13.3093 13.2644 13.3938 13.0276 13.552C12.7907 13.7102 12.6062 13.9351 12.4972 14.1983C12.3882 14.4614 12.3597 14.7509 12.4152 15.0303C12.4708 15.3096 12.608 15.5662 12.8093 15.7676C13.0107 15.969 13.2673 16.1061 13.5466 16.1617C13.826 16.2172 14.1155 16.1887 14.3786 16.0797C14.6418 15.9707 14.8667 15.7862 15.0249 15.5493C15.1831 15.3125 15.2676 15.0341 15.2676 14.7493C15.2676 14.3674 15.1159 14.0011 14.8458 13.7311C14.5758 13.461 14.2095 13.3093 13.8276 13.3093ZM13.8276 15.4693C13.6852 15.4693 13.546 15.4271 13.4276 15.348C13.3092 15.2689 13.2169 15.1564 13.1624 15.0249C13.1079 14.8933 13.0936 14.7485 13.1214 14.6089C13.1492 14.4692 13.2178 14.3409 13.3185 14.2402C13.4191 14.1395 13.5474 14.0709 13.6871 14.0432C13.8268 14.0154 13.9715 14.0296 14.1031 14.0841C14.2347 14.1386 14.3471 14.2309 14.4262 14.3493C14.5053 14.4677 14.5476 14.6069 14.5476 14.7493C14.5461 14.9393 14.4697 15.1211 14.3348 15.255C14.1999 15.3888 14.0176 15.4639 13.8276 15.4639V15.4693Z" fill="black"/>
<path d="M15.975 11.115L17.4312 4.61344C17.4692 4.44344 17.4685 4.26707 17.4293 4.09737C17.39 3.92766 17.313 3.76895 17.2042 3.63296C17.0953 3.49697 16.9573 3.38717 16.8003 3.31169C16.6433 3.2362 16.4714 3.19695 16.2972 3.19684H4.94458L4.72138 2.10424C4.70455 2.0217 4.65931 1.94767 4.59353 1.89505C4.52775 1.84243 4.4456 1.81454 4.36138 1.81624H0.899978C0.8045 1.81624 0.712933 1.85416 0.64542 1.92168C0.577906 1.98919 0.539978 2.08076 0.539978 2.17624C0.539978 2.27171 0.577906 2.36328 0.64542 2.43079C0.712933 2.49831 0.8045 2.53624 0.899978 2.53624H4.07518L4.29838 3.62884L5.82838 11.1078L6.17218 12.78C6.18901 12.8626 6.23425 12.9366 6.30003 12.9892C6.36581 13.0418 6.44796 13.0697 6.53218 13.068H16.5816C16.6771 13.068 16.7686 13.0301 16.8361 12.9626C16.9037 12.8951 16.9416 12.8035 16.9416 12.708C16.9416 12.6126 16.9037 12.521 16.8361 12.4535C16.7686 12.386 16.6771 12.348 16.5816 12.348H6.81838L6.62218 11.3922H15.6222C15.7037 11.3928 15.783 11.3657 15.847 11.3153C15.9111 11.265 15.9562 11.1944 15.975 11.115ZM6.47998 10.6758L5.09218 3.91684H16.2972C16.3637 3.91649 16.4294 3.93121 16.4895 3.95987C16.5495 3.98853 16.6022 4.0304 16.6438 4.08234C16.6854 4.13428 16.7146 4.19495 16.7294 4.2598C16.7442 4.32466 16.7441 4.39202 16.7292 4.45684L15.3342 10.6758H6.47998Z" fill="black"/>
</svg>
